<svg width="24" height="24" viewBox="0 0 24 24" fill="none" xmlns="http://www.w3.org/2000/svg">
<path d="M16.254 7.74604C15.1746 6.66668 13.6508 5.96826 12 5.96826C10.3492 5.96826 8.82541 6.63493 7.74604 7.74604C6.66668 8.82541 5.96826 10.3492 5.96826 12C5.96826 13.6508 6.66668 15.1746 7.74604 16.254C8.82541 17.3334 10.3492 18.0318 12 18.0318C13.6508 18.0318 15.1746 17.3651 16.254 16.254C17.3334 15.1746 18.0318 13.6508 18.0318 12C18.0318 10.3492 17.3651 8.82541 16.254 7.74604ZM15.1111 15.1111C14.3175 15.9048 13.2064 16.381 12 16.381C10.7937 16.381 9.68255 15.9048 8.8889 15.1111C8.09525 14.3175 7.61906 13.2064 7.61906 12C7.61906 10.7937 8.09525 9.68255 8.8889 8.8889C9.68255 8.09525 10.7937 7.61906 12 7.61906C13.2064 7.61906 14.3175 8.09525 15.1111 8.8889C15.9048 9.68255 16.381 10.7937 16.381 12C16.381 13.2064 15.9048 14.3175 15.1111 15.1111Z" fill="#EBEBEB"/>
<path d="M23.1746 11.1746H20.7302C20.2857 11.1746 19.9048 11.5555 19.9048 12C19.9048 12.4444 20.2857 12.8254 20.7302 12.8254H23.1746C23.6191 12.8254 24 12.4444 24 12C24 11.5555 23.6191 11.1746 23.1746 11.1746Z" fill="#EBEBEB"/>
<path d="M12.0002 19.9048C11.5558 19.9048 11.1748 20.2857 11.1748 20.7302V23.1746C11.1748 23.6191 11.5558 24 12.0002 24C12.4446 24 12.8256 23.6191 12.8256 23.1746V20.7302C12.8256 20.2857 12.4446 19.9048 12.0002 19.9048Z" fill="#EBEBEB"/>
<path d="M20.4761 19.3334L18.7301 17.5873C18.4444 17.2699 17.9047 17.2699 17.5872 17.5873C17.2698 17.9048 17.2698 18.4127 17.5872 18.7302L19.3333 20.4762C19.6507 20.7937 20.1586 20.7937 20.4761 20.4762C20.7936 20.1588 20.7936 19.6508 20.4761 19.3334Z" fill="#EBEBEB"/>
<path d="M12.0002 0C11.5558 0 11.1748 0.380953 11.1748 0.825398V3.26984C11.1748 3.71429 11.5558 4.09524 12.0002 4.09524C12.4446 4.09524 12.8256 3.71429 12.8256 3.26984V0.825398C12.8256 0.380953 12.4446 0 12.0002 0Z" fill="#EBEBEB"/>
<path d="M20.5078 3.52398C20.1904 3.20652 19.6824 3.20652 19.365 3.52398L17.619 5.27002C17.3015 5.58748 17.3015 6.09542 17.619 6.41288C17.9047 6.73034 18.4444 6.73034 18.7618 6.41288L20.5078 4.66684C20.8253 4.34938 20.8253 3.84145 20.5078 3.52398Z" fill="#EBEBEB"/>
<path d="M3.26984 11.1746H0.825398C0.380953 11.1746 0 11.5555 0 12C0 12.4444 0.349207 12.8254 0.825398 12.8254H3.26984C3.71429 12.8254 4.09524 12.4444 4.09524 12C4.09524 11.5555 3.71429 11.1746 3.26984 11.1746Z" fill="#EBEBEB"/>
<path d="M6.38114 17.5873C6.09543 17.2699 5.55574 17.2699 5.23828 17.5873L3.49225 19.3334C3.17479 19.6508 3.17479 20.1588 3.49225 20.4762C3.80971 20.7937 4.31764 20.7937 4.63511 20.4762L6.38114 18.7302C6.6986 18.4127 6.6986 17.9048 6.38114 17.5873Z" fill="#EBEBEB"/>
<path d="M6.38114 5.27002L4.63511 3.52398C4.31764 3.20652 3.80971 3.20652 3.49225 3.52398C3.17479 3.84145 3.17479 4.34938 3.49225 4.66684L5.23828 6.41288C5.55574 6.73034 6.06368 6.73034 6.38114 6.41288C6.6986 6.09542 6.6986 5.58748 6.38114 5.27002Z" fill="#EBEBEB"/>
</svg>
