<svg width="24" height="24" viewBox="0 0 24 24" fill="none" xmlns="http://www.w3.org/2000/svg">
<path d="M15.3721 4.32241L14.7162 4.97833C14.3294 5.36515 13.7744 5.55016 13.2362 5.44925C11.1507 5.06242 8.91384 5.68471 7.29926 7.29928C5.68468 8.91386 5.0624 11.1507 5.44922 13.2362C5.55014 13.7744 5.36513 14.3294 4.97831 14.7162L4.32239 15.3722C3.38055 16.314 1.79961 15.8431 1.49688 14.5649C0.639134 11.0162 1.59779 7.1311 4.35602 4.37286C7.13107 1.59781 11.0161 0.639156 14.548 1.4969C15.8431 1.79963 16.2972 3.39739 15.3721 4.32241Z" fill="url(#paint0_linear_106_3374)"/>
<path d="M19.6941 8.62795C20.6023 7.71975 22.2001 8.12339 22.5028 9.38478C23.3942 12.9503 22.4524 16.8858 19.6605 19.6777C16.8686 22.4696 12.9331 23.4114 9.36757 22.52C8.10618 22.2005 7.70254 20.6195 8.61074 19.7113L9.26666 19.0554C9.65348 18.6686 10.2085 18.4836 10.7467 18.5845C12.849 18.9881 15.1027 18.3659 16.7173 16.7513C18.3487 15.1199 18.9541 12.8662 18.5505 10.7807C18.4496 10.2425 18.6346 9.68751 19.0214 9.30069L19.6941 8.62795Z" fill="url(#paint1_linear_106_3374)"/>
<path d="M20.9388 2.32102L21.6789 3.06103C22.2675 3.64968 22.318 4.54106 21.7966 5.06243L5.06219 21.7968C4.54081 22.3182 3.64943 22.2678 3.06078 21.6791L2.32077 20.9391C1.73212 20.3505 1.68167 19.4591 2.20304 18.9377L18.9374 2.20329C19.442 1.68191 20.3502 1.73237 20.9388 2.32102Z" fill="url(#paint2_linear_106_3374)"/>
<path d="M3.86806 3.36375L3.36351 3.86831C2.70759 4.52423 1.64802 4.52423 0.992102 3.86831L0.487547 3.36375C-0.168375 2.70783 -0.168375 1.64827 0.487547 0.992346L0.992102 0.487791C1.64802 -0.168131 2.70759 -0.168131 3.36351 0.487791L3.86806 0.992346C4.52399 1.64827 4.52399 2.70783 3.86806 3.36375Z" fill="url(#paint3_linear_106_3374)"/>
<path d="M23.5124 23.0077L23.0078 23.5122C22.3519 24.1681 21.2923 24.1681 20.6364 23.5122L20.1318 23.0077C19.4759 22.3518 19.4759 21.2922 20.1318 20.6363L20.6364 20.1317C21.2923 19.4758 22.3519 19.4758 23.0078 20.1317L23.5124 20.6363C24.1683 21.2922 24.1683 22.3518 23.5124 23.0077Z" fill="url(#paint4_linear_106_3374)"/>
<defs>
<linearGradient id="paint0_linear_106_3374" x1="0.391666" y1="13.8207" x2="13.8136" y2="0.398788" gradientUnits="userSpaceOnUse">
<stop stop-color="#662D91"/>
<stop offset="1" stop-color="#EE2A7B"/>
</linearGradient>
<linearGradient id="paint1_linear_106_3374" x1="10.1757" y1="23.6558" x2="23.6483" y2="10.1832" gradientUnits="userSpaceOnUse">
<stop stop-color="#662D91"/>
<stop offset="1" stop-color="#EE2A7B"/>
</linearGradient>
<linearGradient id="paint2_linear_106_3374" x1="2.69817" y1="21.3096" x2="21.3071" y2="2.70071" gradientUnits="userSpaceOnUse">
<stop stop-color="#662D91"/>
<stop offset="1" stop-color="#EE2A7B"/>
</linearGradient>
<linearGradient id="paint3_linear_106_3374" x1="0.74114" y1="3.61894" x2="3.61642" y2="0.743667" gradientUnits="userSpaceOnUse">
<stop stop-color="#662D91"/>
<stop offset="1" stop-color="#EE2A7B"/>
</linearGradient>
<linearGradient id="paint4_linear_106_3374" x1="20.3891" y1="23.2666" x2="23.2644" y2="20.3913" gradientUnits="userSpaceOnUse">
<stop stop-color="#662D91"/>
<stop offset="1" stop-color="#EE2A7B"/>
</linearGradient>
</defs>
</svg>
